<svg xmlns="http://www.w3.org/2000/svg" xmlns:xlink="http://www.w3.org/1999/xlink" width="60" zoomAndPan="magnify" viewBox="0 0 45 44.999999" height="60" preserveAspectRatio="xMidYMid meet" version="1.0"><defs><clipPath id="12cec94884"><path d="M 18 10.574219 L 45 10.574219 L 45 34.574219 L 18 34.574219 Z M 18 10.574219 " clip-rule="nonzero"/></clipPath></defs><g clip-path="url(#12cec94884)"><path fill="#2e6842" d="M 33.003906 12.914062 C 24.265625 11.101562 17.378906 20.390625 19.046875 28.582031 C 19.046875 28.582031 24.285156 19.175781 32.507812 18.28125 C 32.507812 18.28125 26.839844 21.582031 22.570312 26.65625 C 19.988281 29.726562 22.3125 34.417969 26.316406 34.242188 C 32.613281 33.949219 41.183594 29.726562 44.992188 10.585938 C 45 10.578125 41.742188 14.722656 33.003906 12.914062 Z M 33.003906 12.914062 " fill-opacity="1" fill-rule="nonzero"/></g><path fill="#2e6842" d="M 9.175781 16.921875 C 2.351562 17.074219 0.699219 14.226562 0.699219 14.226562 C 0 26.203125 5.582031 29.671875 10.210938 30.523438 C 13.148438 31.066406 15.738281 28.472656 14.390625 26.34375 C 12.15625 22.824219 8.554688 20.214844 8.554688 20.214844 C 14.496094 21.644531 16.652344 27.890625 16.652344 27.890625 C 19.402344 23.125 16.003906 16.773438 9.175781 16.921875 Z M 9.175781 16.921875 " fill-opacity="1" fill-rule="nonzero"/></svg>