<svg xmlns="http://www.w3.org/2000/svg" xmlns:xlink="http://www.w3.org/1999/xlink" width="600" zoomAndPan="magnify" viewBox="0 0 450 599.999999" height="800" preserveAspectRatio="xMidYMid meet" version="1.0"><defs><clipPath id="f66674c7a0"><path d="M 220 210.113281 L 230 210.113281 L 230 254 L 220 254 Z M 220 210.113281 " clip-rule="nonzero"/></clipPath></defs><rect x="-45" width="540" fill="#ffffff" y="-60" height="719.999999" fill-opacity="1"/><rect x="-45" width="540" fill="#ffffff" y="-60" height="719.999999" fill-opacity="1"/><g clip-path="url(#f66674c7a0)"><path fill="#3d3d3d" d="M 229.386719 214.429688 C 229.386719 213.300781 228.9375 212.21875 228.144531 211.421875 C 227.347656 210.625 226.265625 210.175781 225.140625 210.175781 C 224.015625 210.175781 222.933594 210.625 222.136719 211.421875 C 221.339844 212.21875 220.894531 213.300781 220.894531 214.429688 L 220.894531 248.863281 C 220.894531 249.992188 221.339844 251.074219 222.136719 251.867188 C 222.933594 252.664062 224.015625 253.113281 225.140625 253.113281 C 226.265625 253.113281 227.347656 252.664062 228.144531 251.867188 C 228.9375 251.074219 229.386719 249.992188 229.386719 248.863281 Z M 229.386719 214.429688 " fill-opacity="1" fill-rule="evenodd"/></g><path fill="#f6f6f6" d="M 257.296875 220.566406 C 257.664062 219.5 257.59375 218.332031 257.105469 217.316406 C 256.613281 216.304688 255.738281 215.527344 254.675781 215.15625 C 254.675781 215.15625 254.675781 215.15625 254.671875 215.15625 C 253.609375 214.785156 252.441406 214.855469 251.429688 215.347656 C 250.417969 215.839844 249.640625 216.714844 249.269531 217.78125 C 246.582031 225.550781 240.699219 242.550781 238.007812 250.316406 C 237.636719 251.382812 237.707031 252.550781 238.199219 253.5625 C 238.691406 254.578125 239.566406 255.359375 240.628906 255.726562 C 241.691406 256.09375 242.859375 256.023438 243.871094 255.535156 C 244.886719 255.042969 245.664062 254.167969 246.03125 253.101562 C 248.71875 245.335938 254.605469 228.335938 257.296875 220.566406 Z M 257.296875 220.566406 " fill-opacity="1" fill-rule="evenodd"/><path fill="#eeeeee" d="M 281.65625 235.519531 C 282.355469 234.632812 282.671875 233.507812 282.539062 232.386719 C 282.40625 231.269531 281.835938 230.246094 280.949219 229.546875 C 280.066406 228.847656 278.941406 228.535156 277.824219 228.667969 C 276.703125 228.796875 275.6875 229.371094 274.988281 230.257812 C 269.90625 236.714844 258.785156 250.84375 253.703125 257.304688 C 253.003906 258.191406 252.691406 259.316406 252.824219 260.433594 C 252.953125 261.554688 253.523438 262.578125 254.410156 263.273438 C 255.292969 263.96875 256.417969 264.289062 257.539062 264.15625 C 258.65625 264.023438 259.675781 263.453125 260.371094 262.566406 C 265.453125 256.109375 276.574219 241.976562 281.65625 235.519531 Z M 281.65625 235.519531 " fill-opacity="1" fill-rule="evenodd"/><path fill="#e9e9e9" d="M 299.785156 257.636719 C 300.734375 257.027344 301.398438 256.066406 301.640625 254.964844 C 301.882812 253.867188 301.675781 252.714844 301.070312 251.761719 C 301.070312 251.761719 301.066406 251.761719 301.066406 251.761719 C 300.460938 250.8125 299.503906 250.144531 298.402344 249.902344 C 297.304688 249.660156 296.152344 249.867188 295.207031 250.476562 C 288.292969 254.914062 273.160156 264.617188 266.246094 269.050781 C 265.296875 269.660156 264.628906 270.621094 264.390625 271.722656 C 264.148438 272.820312 264.355469 273.972656 264.960938 274.921875 C 264.960938 274.925781 264.960938 274.925781 264.960938 274.925781 C 265.570312 275.875 266.527344 276.542969 267.625 276.785156 C 268.730469 277.027344 269.878906 276.820312 270.828125 276.210938 C 277.742188 271.773438 292.871094 262.070312 299.785156 257.636719 Z M 299.785156 257.636719 " fill-opacity="1" fill-rule="evenodd"/><path fill="#e9e9e9" d="M 309.679688 284.476562 C 310.773438 284.214844 311.714844 283.527344 312.304688 282.566406 C 312.890625 281.605469 313.074219 280.445312 312.8125 279.351562 C 312.550781 278.257812 311.863281 277.308594 310.902344 276.71875 C 309.941406 276.128906 308.785156 275.949219 307.691406 276.210938 C 299.707031 278.136719 282.238281 282.339844 274.253906 284.265625 C 273.160156 284.527344 272.214844 285.214844 271.628906 286.179688 C 271.039062 287.140625 270.859375 288.296875 271.117188 289.390625 L 271.117188 289.394531 C 271.382812 290.488281 272.074219 291.4375 273.03125 292.023438 C 273.992188 292.613281 275.144531 292.796875 276.238281 292.53125 C 284.226562 290.609375 301.695312 286.402344 309.679688 284.476562 Z M 309.679688 284.476562 " fill-opacity="1" fill-rule="evenodd"/><path fill="#e4e4e4" d="M 310.242188 313.085938 C 311.367188 313.195312 312.484375 312.855469 313.351562 312.136719 C 314.222656 311.421875 314.773438 310.390625 314.882812 309.269531 C 314.992188 308.144531 314.652344 307.027344 313.9375 306.15625 C 313.222656 305.285156 312.191406 304.734375 311.074219 304.625 C 302.902344 303.820312 285.019531 302.066406 276.847656 301.265625 C 275.726562 301.15625 274.605469 301.5 273.738281 302.214844 C 272.867188 302.929688 272.316406 303.960938 272.207031 305.082031 C 272.097656 306.207031 272.4375 307.328125 273.152344 308.195312 C 273.867188 309.070312 274.898438 309.617188 276.015625 309.726562 C 284.1875 310.53125 302.070312 312.285156 310.242188 313.085938 Z M 310.242188 313.085938 " fill-opacity="1" fill-rule="evenodd"/><path fill="#dddddd" d="M 301.421875 340.300781 C 302.445312 340.773438 303.613281 340.816406 304.671875 340.425781 C 305.726562 340.035156 306.582031 339.242188 307.054688 338.214844 C 307.523438 337.191406 307.570312 336.023438 307.179688 334.964844 C 306.789062 333.90625 305.996094 333.046875 304.972656 332.574219 C 297.515625 329.136719 281.191406 321.617188 273.730469 318.179688 C 272.710938 317.707031 271.539062 317.664062 270.488281 318.054688 C 269.429688 318.445312 268.570312 319.238281 268.101562 320.265625 C 268.097656 320.265625 268.097656 320.265625 268.097656 320.265625 C 267.628906 321.289062 267.585938 322.457031 267.976562 323.515625 C 268.367188 324.574219 269.160156 325.433594 270.183594 325.902344 C 277.640625 329.339844 293.960938 336.859375 301.421875 340.300781 Z M 301.421875 340.300781 " fill-opacity="1" fill-rule="evenodd"/><path fill="#d0d0d0" d="M 284.1875 363.121094 C 285 363.902344 286.085938 364.328125 287.210938 364.304688 C 288.339844 364.28125 289.40625 363.8125 290.1875 362.996094 C 290.96875 362.183594 291.394531 361.09375 291.371094 359.964844 C 291.347656 358.839844 290.878906 357.765625 290.066406 356.988281 C 284.144531 351.292969 271.179688 338.832031 265.257812 333.140625 C 264.445312 332.355469 263.359375 331.929688 262.230469 331.953125 C 261.105469 331.980469 260.035156 332.449219 259.257812 333.261719 C 258.472656 334.074219 258.050781 335.167969 258.070312 336.292969 C 258.09375 337.417969 258.5625 338.492188 259.375 339.269531 C 265.300781 344.96875 278.261719 357.425781 284.1875 363.121094 Z M 284.1875 363.121094 " fill-opacity="1" fill-rule="evenodd"/><path fill="#c7c7c7" d="M 260.433594 379.03125 C 260.945312 380.03125 261.835938 380.792969 262.910156 381.140625 C 263.980469 381.488281 265.144531 381.394531 266.144531 380.882812 C 266.148438 380.882812 266.148438 380.882812 266.148438 380.882812 C 267.148438 380.371094 267.90625 379.476562 268.253906 378.402344 C 268.601562 377.335938 268.507812 376.164062 267.996094 375.164062 C 264.265625 367.839844 256.09375 351.816406 252.359375 344.492188 C 251.847656 343.488281 250.957031 342.730469 249.882812 342.382812 C 248.816406 342.035156 247.648438 342.128906 246.648438 342.640625 C 246.644531 342.640625 246.644531 342.640625 246.644531 342.640625 C 245.644531 343.152344 244.882812 344.042969 244.539062 345.117188 C 244.191406 346.1875 244.28125 347.355469 244.792969 348.359375 C 248.527344 355.683594 256.699219 371.707031 260.433594 379.03125 Z M 260.433594 379.03125 " fill-opacity="1" fill-rule="evenodd"/><path fill="#bcbcbc" d="M 232.789062 386.269531 C 232.945312 387.386719 233.539062 388.398438 234.4375 389.074219 C 235.335938 389.757812 236.464844 390.050781 237.582031 389.894531 C 238.695312 389.738281 239.703125 389.144531 240.382812 388.246094 C 241.0625 387.347656 241.355469 386.214844 241.199219 385.097656 C 240.066406 376.953125 237.585938 359.136719 236.453125 350.992188 C 236.300781 349.875 235.710938 348.867188 234.808594 348.183594 C 233.914062 347.507812 232.78125 347.210938 231.664062 347.367188 C 230.550781 347.523438 229.539062 348.113281 228.863281 349.015625 C 228.183594 349.914062 227.890625 351.046875 228.042969 352.164062 C 229.175781 360.304688 231.65625 378.128906 232.789062 386.269531 Z M 232.789062 386.269531 " fill-opacity="1" fill-rule="evenodd"/><path fill="#b1b1b1" d="M 204.300781 384.046875 C 204.085938 385.152344 204.3125 386.300781 204.9375 387.238281 C 205.566406 388.175781 206.539062 388.820312 207.640625 389.042969 C 207.640625 389.042969 207.644531 389.042969 207.644531 389.042969 C 208.75 389.261719 209.894531 389.03125 210.832031 388.402344 C 211.765625 387.777344 212.414062 386.804688 212.632812 385.695312 C 214.222656 377.628906 217.710938 359.980469 219.304688 351.914062 C 219.523438 350.808594 219.292969 349.660156 218.667969 348.726562 C 218.039062 347.789062 217.070312 347.136719 215.964844 346.921875 C 214.859375 346.703125 213.710938 346.933594 212.777344 347.558594 C 211.84375 348.183594 211.191406 349.160156 210.972656 350.265625 C 209.382812 358.328125 205.894531 375.980469 204.300781 384.046875 Z M 204.300781 384.046875 " fill-opacity="1" fill-rule="evenodd"/><path fill="#9e9e9e" d="M 178.113281 372.601562 C 177.542969 373.574219 177.386719 374.734375 177.667969 375.824219 C 177.957031 376.917969 178.664062 377.847656 179.636719 378.417969 C 180.609375 378.988281 181.765625 379.144531 182.855469 378.859375 C 183.941406 378.574219 184.875 377.867188 185.441406 376.890625 C 189.585938 369.792969 198.65625 354.261719 202.796875 347.164062 C 203.363281 346.191406 203.523438 345.03125 203.238281 343.941406 C 202.953125 342.851562 202.25 341.917969 201.277344 341.347656 C 200.300781 340.78125 199.144531 340.621094 198.054688 340.90625 C 196.964844 341.191406 196.035156 341.902344 195.464844 342.871094 C 191.324219 349.96875 182.257812 365.503906 178.113281 372.601562 Z M 178.113281 372.601562 " fill-opacity="1" fill-rule="evenodd"/><path fill="#949494" d="M 157.109375 353.199219 C 156.253906 353.933594 155.726562 354.976562 155.640625 356.101562 C 155.550781 357.226562 155.914062 358.339844 156.648438 359.195312 C 157.378906 360.050781 158.421875 360.582031 159.542969 360.667969 C 160.667969 360.757812 161.777344 360.394531 162.636719 359.660156 C 168.871094 354.3125 182.515625 342.609375 188.753906 337.261719 C 189.613281 336.527344 190.140625 335.484375 190.226562 334.359375 C 190.316406 333.238281 189.953125 332.121094 189.21875 331.265625 C 188.488281 330.410156 187.445312 329.882812 186.320312 329.792969 C 185.199219 329.707031 184.085938 330.070312 183.230469 330.800781 C 176.996094 336.152344 163.347656 347.851562 157.109375 353.199219 Z M 157.109375 353.199219 " fill-opacity="1" fill-rule="evenodd"/><path fill="#898989" d="M 143.613281 327.980469 C 142.566406 328.390625 141.722656 329.207031 141.273438 330.238281 C 140.828125 331.273438 140.804688 332.445312 141.214844 333.492188 C 141.628906 334.542969 142.4375 335.386719 143.472656 335.835938 C 144.503906 336.285156 145.671875 336.304688 146.71875 335.894531 C 154.363281 332.886719 171.085938 326.304688 178.726562 323.300781 C 179.777344 322.886719 180.617188 322.074219 181.066406 321.039062 C 181.515625 320.007812 181.535156 318.835938 181.125 317.789062 C 181.125 317.789062 181.125 317.785156 181.125 317.785156 C 180.710938 316.738281 179.902344 315.898438 178.871094 315.445312 C 177.839844 314.996094 176.667969 314.972656 175.621094 315.386719 C 167.980469 318.394531 151.253906 324.972656 143.613281 327.980469 Z M 143.613281 327.980469 " fill-opacity="1" fill-rule="evenodd"/><path fill="#7d7d7d" d="M 139.109375 299.726562 C 137.984375 299.773438 136.921875 300.265625 136.160156 301.09375 C 135.398438 301.921875 134.996094 303.019531 135.042969 304.148438 C 135.085938 305.273438 135.578125 306.335938 136.40625 307.101562 C 137.234375 307.863281 138.332031 308.265625 139.457031 308.222656 C 147.660156 307.886719 165.617188 307.15625 173.816406 306.820312 C 174.941406 306.773438 176.003906 306.28125 176.765625 305.453125 C 177.527344 304.625 177.933594 303.527344 177.886719 302.398438 L 177.886719 302.394531 C 177.839844 301.269531 177.347656 300.207031 176.523438 299.445312 C 175.695312 298.679688 174.597656 298.277344 173.472656 298.324219 C 165.269531 298.65625 147.316406 299.390625 139.109375 299.726562 Z M 139.109375 299.726562 " fill-opacity="1" fill-rule="evenodd"/><path fill="#6f6f6f" d="M 144.097656 271.550781 C 143.019531 271.230469 141.859375 271.34375 140.867188 271.878906 C 139.871094 272.410156 139.132812 273.316406 138.808594 274.394531 C 138.480469 275.476562 138.597656 276.640625 139.128906 277.632812 C 139.664062 278.628906 140.566406 279.367188 141.648438 279.695312 C 149.507812 282.070312 166.710938 287.261719 174.570312 289.636719 C 175.652344 289.964844 176.8125 289.84375 177.804688 289.3125 C 178.796875 288.78125 179.535156 287.875 179.863281 286.796875 L 179.863281 286.792969 C 180.1875 285.714844 180.070312 284.546875 179.539062 283.554688 C 179.003906 282.5625 178.101562 281.824219 177.023438 281.496094 C 169.160156 279.125 151.957031 273.929688 144.097656 271.550781 Z M 144.097656 271.550781 " fill-opacity="1" fill-rule="evenodd"/><path fill="#5f5f5f" d="M 158.027344 246.570312 C 157.113281 245.910156 155.976562 245.636719 154.867188 245.816406 C 153.753906 245.996094 152.757812 246.605469 152.097656 247.523438 C 151.4375 248.433594 151.164062 249.574219 151.34375 250.6875 C 151.523438 251.796875 152.136719 252.796875 153.046875 253.457031 C 159.695312 258.28125 174.253906 268.828125 180.902344 273.648438 C 181.816406 274.3125 182.953125 274.582031 184.0625 274.40625 C 185.175781 274.226562 186.171875 273.613281 186.832031 272.699219 C 187.492188 271.785156 187.765625 270.648438 187.585938 269.535156 C 187.40625 268.421875 186.792969 267.425781 185.882812 266.761719 C 179.230469 261.941406 164.675781 251.390625 158.027344 246.570312 Z M 158.027344 246.570312 " fill-opacity="1" fill-rule="evenodd"/><path fill="#545454" d="M 179.355469 227.53125 C 178.714844 226.609375 177.726562 225.980469 176.617188 225.785156 C 175.507812 225.585938 174.367188 225.839844 173.445312 226.488281 C 172.519531 227.132812 171.894531 228.121094 171.699219 229.230469 C 171.5 230.339844 171.753906 231.484375 172.402344 232.40625 C 177.109375 239.144531 187.40625 253.886719 192.113281 260.621094 C 192.761719 261.546875 193.746094 262.175781 194.855469 262.371094 C 195.964844 262.566406 197.105469 262.316406 198.027344 261.667969 C 198.949219 261.023438 199.578125 260.035156 199.773438 258.925781 C 199.972656 257.816406 199.71875 256.671875 199.074219 255.746094 C 194.367188 249.011719 184.0625 234.269531 179.355469 227.53125 Z M 179.355469 227.53125 " fill-opacity="1" fill-rule="evenodd"/><path fill="#454545" d="M 203.929688 216.980469 C 203.601562 215.902344 202.855469 215.003906 201.859375 214.472656 C 200.863281 213.945312 199.699219 213.835938 198.625 214.167969 C 197.546875 214.5 196.648438 215.246094 196.121094 216.242188 C 195.59375 217.238281 195.484375 218.402344 195.816406 219.480469 C 198.230469 227.339844 203.515625 244.535156 205.925781 252.394531 C 206.257812 253.472656 207.003906 254.371094 208 254.902344 C 208.992188 255.429688 210.15625 255.539062 211.230469 255.207031 C 211.230469 255.207031 211.234375 255.207031 211.234375 255.207031 C 212.308594 254.875 213.210938 254.128906 213.738281 253.132812 C 214.261719 252.136719 214.371094 250.972656 214.042969 249.894531 C 211.628906 242.039062 206.34375 224.839844 203.929688 216.980469 Z M 203.929688 216.980469 " fill-opacity="1" fill-rule="evenodd"/></svg>